HIERARCHY
ROOT hip
{
	OFFSET 0.000000 0.000000 0.000000 
	CHANNELS 6 Xposition Yposition Zposition Xrotation Zrotation Yrotation
	JOINT abdomen
	{
		OFFSET 0.000000 3.402643 0.000000 
		CHANNELS 3 Xrotation Zrotation Yrotation
		JOINT chest
		{
			OFFSET 0.000000 8.438565 -0.680529 
			CHANNELS 3 Xrotation Zrotation Yrotation
			JOINT neck
			{
				OFFSET 0.000000 10.207942 -0.272212 
				CHANNELS 3 Xrotation Zrotation Yrotation
				JOINT head
				{
					OFFSET 0.000000 3.130431 0.000000 
					CHANNELS 3 Xrotation Zrotation Yrotation
					End Site
					{
						OFFSET 0.000000 3.130435 0.000000 
					}
				}
			}
			JOINT lCollar
			{
				OFFSET 3.470700 6.669187 -0.816635 
				CHANNELS 3 Yrotation Zrotation Xrotation
				JOINT lShldr
				{
					OFFSET 3.198488 0.000000 0.000000 
					CHANNELS 3 Zrotation Yrotation Xrotation
					JOINT lForeArm
					{
						OFFSET 10.139888 0.000000 0.000000 
						CHANNELS 3 Yrotation Zrotation Xrotation
						JOINT lHand
						{
							OFFSET 8.370511 0.000000 0.000000 
							CHANNELS 3 Zrotation Yrotation Xrotation
							End Site
							{
								OFFSET 4.083176 0.000000 0.000000 
							}
						}
					}
				}
			}
			JOINT rCollar
			{
				OFFSET -3.470700 6.669187 -0.816635 
				CHANNELS 3 Yrotation Zrotation Xrotation
				JOINT rShldr
				{
					OFFSET -3.198488 0.000000 0.000000 
					CHANNELS 3 Zrotation Yrotation Xrotation
					JOINT rForeArm
					{
						OFFSET -10.139888 0.000000 0.000000 
						CHANNELS 3 Yrotation Zrotation Xrotation
						JOINT rHand
						{
							OFFSET -8.370511 0.000000 0.000000 
							CHANNELS 3 Zrotation Yrotation Xrotation
							End Site
							{
								OFFSET -4.083176 0.000000 0.000000 
							}
						}
					}
				}
			}
		}
	}
	JOINT lThigh
	{
		OFFSET 5.308129 -1.633274 1.361059 
		CHANNELS 3 Xrotation Zrotation Yrotation
		JOINT lShin
		{
			OFFSET -2.041588 -20.007561 0.000000 
			CHANNELS 3 Xrotation Zrotation Yrotation
			JOINT lFoot
			{
				OFFSET 0.000000 -19.190928 -1.224953 
				CHANNELS 3 Xrotation Yrotation Zrotation
				End Site
				{
					OFFSET 0.000000 -2.449906 4.627600 
				}
			}
		}
	}
	JOINT rThigh
	{
		OFFSET -5.308129 -1.633274 1.361059 
		CHANNELS 3 Xrotation Zrotation Yrotation
		JOINT rShin
		{
			OFFSET 2.041588 -20.007561 0.000000 
			CHANNELS 3 Xrotation Zrotation Yrotation
			JOINT rFoot
			{
				OFFSET 0.000000 -19.190928 -1.224953 
				CHANNELS 3 Xrotation Yrotation Zrotation
				End Site
				{
					OFFSET 0.000000 -2.449906 4.627600 
				}
			}
		}
	}
}
MOTION
Frames: 10
Frame Time: 0.033333
-1.676676 50.753410 5.310749 -3.710938 -0.361328 43.603455 55.106060 -19.398607 4.432921 -25.654299 8.632813 1.171875 51.063168 8.107644 2.471410 -66.464844 -3.320312 25.869143 2.000000 -2.000000 0.000000 -77.001953 23.320311 6.015625 -106.612442 0.543035 -3.157346 57.828953 11.082288 5.445812 -2.000000 2.000000 0.000000 63.525391 -25.283203 14.267577 92.890236 0.038543 -3.065037 -51.360073 -41.204762 37.147720 -14.732922 11.950523 -0.953026 35.851486 -3.985570 -3.115172 7.854393 7.334049 14.245854 -3.949744 -1.352526 -17.613258 43.419544 3.619336 3.484527 23.372416 -1.666544 -4.352365 
-3.361443 51.667267 10.637445 -5.292969 -0.537109 38.525387 56.013931 -16.643377 2.210896 -25.703125 6.875000 0.703125 51.063168 8.107644 2.471410 -64.736328 -1.962891 18.378576 2.000000 -2.000000 0.000000 -78.798828 21.923830 5.316147 -109.595306 0.836477 -2.988677 58.800266 10.524805 3.039076 -2.000000 2.000000 0.000000 65.537109 -37.119137 11.654263 96.221687 -0.075630 -3.120519 -48.091160 -41.895271 34.226173 -16.394911 19.422283 -2.630298 41.846596 -3.634950 -3.472605 26.967222 3.675105 16.253942 -4.890059 -2.594464 -19.544790 38.330181 3.945108 3.028591 20.950382 -4.189949 -3.599976 
-5.030006 51.958755 15.932213 -7.050781 -0.878906 33.310390 56.868996 -14.149391 0.219230 -25.732424 5.292969 0.068359 51.063168 8.107644 2.471410 -62.988285 -0.400390 10.722644 2.000000 -2.000000 0.000000 -81.826172 21.630861 -0.162414 -109.413925 1.003757 -2.802988 58.363270 11.079722 2.294319 -2.000000 2.000000 0.000000 66.699219 -42.304688 11.682878 101.843834 -0.471240 -3.045634 -42.171146 -41.924812 28.127268 -9.098203 25.939594 -1.213216 38.654644 -3.556445 -3.517910 34.024315 1.788666 17.585423 -5.623657 -3.855255 -20.961353 33.404121 4.316001 2.257280 17.975483 -6.430702 -2.780483 
-6.658117 51.572735 21.147135 -8.642578 -1.396484 28.505959 57.400295 -12.462772 -0.927560 -25.595703 3.906250 -0.712891 51.063168 8.107644 2.471410 -61.796883 1.416016 2.978516 2.000000 -2.000000 0.000000 -85.595703 24.804686 -10.576171 -96.253464 -0.056181 -3.200909 54.779015 12.653440 4.271351 -2.000000 2.000000 0.000000 69.755859 -36.425781 13.529358 106.227661 -0.677668 -3.028240 -38.099312 -40.132957 21.551542 2.138921 30.962395 1.633233 28.833780 -4.517342 -2.664439 44.480843 0.899907 20.000591 -5.651407 -4.866538 -22.874323 29.363447 4.521432 1.960752 13.016861 -8.779610 -2.275999 
-8.236007 50.674644 26.295868 -10.039063 -1.914063 24.218752 57.426167 -12.373713 -1.081875 -25.429689 3.369141 -1.806641 51.063168 8.107644 2.471410 -61.113281 3.427734 -5.478516 2.000000 -2.000000 0.000000 -90.205078 28.759766 -22.656250 -76.762894 -0.956828 -2.874865 48.849403 15.927313 7.129009 -2.000000 2.000000 0.000000 73.955078 -24.609375 16.484373 109.566544 -0.854847 -3.009153 -35.383991 -37.121803 15.896825 -1.425065 28.081928 0.146951 31.114729 -4.233813 -2.982626 48.060715 3.897852 19.997028 -4.657174 -4.859706 -25.013491 26.552629 4.570061 2.383213 4.895363 -11.440716 -2.258447 
-9.781633 51.746059 31.414053 -11.113281 -2.597656 20.878906 56.918888 -15.292795 1.035267 -25.058594 4.062500 -3.652344 51.063168 8.107644 2.471410 -62.187500 5.917969 -16.434540 2.000000 -2.000000 0.000000 -92.382813 31.416016 -28.920691 -63.578400 -1.042010 -2.488393 45.482059 19.007334 9.263768 -2.000000 2.000000 0.000000 76.708984 -17.373047 18.043957 110.961121 -1.121463 -2.965905 -35.905991 -35.116684 14.643295 -7.567194 21.335562 -1.936398 33.921631 -3.995500 -3.305032 39.974968 2.479440 15.714747 2.640022 -0.396095 -26.888628 25.710283 4.741841 2.360454 -3.913583 -10.405076 -4.906161 
-11.312309 51.541233 36.486183 -11.992188 -2.939453 19.061998 55.464878 -20.576744 5.434536 -24.658205 5.810547 -6.113282 51.063168 8.107644 2.471410 -64.716797 8.124999 -28.476561 2.000000 -2.000000 0.000000 -92.236328 34.423828 -28.662107 -63.223427 -1.200944 -2.361806 45.828102 20.224365 9.635057 -2.000000 2.000000 0.000000 75.263672 -15.927734 18.037109 109.564713 -0.897005 -3.295002 -40.681423 -35.020496 19.271099 -14.271713 12.798404 -3.466928 36.903076 -3.781085 -3.086013 26.042383 0.814763 10.172573 8.050372 3.169033 -28.221653 27.164598 4.709655 2.474016 -6.716121 -9.537267 -5.622815 
-12.845332 50.910984 41.496864 -12.675781 -3.095703 18.593222 53.578716 -25.812326 9.953865 -24.267578 7.539063 -8.369142 51.063168 8.107644 2.471410 -66.953125 9.570312 -37.099606 2.000000 -2.000000 0.000000 -89.716797 37.617188 -24.115131 -69.022331 -0.875583 -2.654529 48.286572 20.888256 9.798754 -2.000000 2.000000 0.000000 71.152344 -16.406248 19.345701 106.391296 -0.916164 -2.963809 -47.519924 -35.091095 27.349005 -19.958408 5.663195 -3.818481 40.115318 -4.074403 -3.506951 11.439806 1.268751 5.592321 6.024910 1.913754 -29.295763 38.220211 4.104084 3.284286 13.497349 -5.279562 -1.058896 
-14.397914 51.785435 46.430702 -13.232422 -3.251953 18.505306 52.462719 -28.215956 12.073296 -24.238281 8.417969 -9.511720 51.063168 8.107644 2.471410 -67.646484 10.595702 -39.306641 2.000000 -2.000000 0.000000 -85.693359 39.785160 -18.411718 -75.003929 -1.013064 -2.832490 50.519066 20.343494 10.137907 -2.000000 2.000000 0.000000 66.181641 -16.992188 21.520586 103.413834 -0.612243 -2.975565 -54.694992 -34.604622 35.154709 -22.802425 1.776737 -3.202157 43.419136 -3.843090 -3.704249 3.259251 3.542580 3.574585 10.903373 5.014511 -28.787792 31.371582 4.436137 2.609049 36.130398 -0.985232 2.286540 
-15.978845 53.471813 51.316647 -13.749999 -3.427734 18.212307 53.483597 -27.026812 10.706532 -24.433596 7.724610 -9.423828 51.063168 8.107644 2.471410 -67.080078 11.582029 -35.986328 2.000000 -2.000000 0.000000 -77.070313 39.716797 -7.816024 -80.441338 -0.481519 -2.775321 52.768837 17.514793 11.810371 -2.000000 2.000000 0.000000 62.333981 -17.412111 23.964842 102.183121 -0.564061 -2.963000 -57.451344 -34.546169 39.172596 -22.627005 2.235434 -2.256725 47.473152 -3.586810 -3.903518 3.494891 6.809870 2.319460 7.331466 2.830345 -27.588823 35.215328 4.274976 3.082793 39.799156 -0.405059 3.033834 
